HIERARCHY
ROOT hip
{
  OFFSET 0 0 0
  CHANNELS 6 Xposition Yposition Zposition Zrotation Yrotation Xrotation
  JOINT abdomen
  {
    OFFSET 0 20.6881 -0.73152
    CHANNELS 3 Zrotation Xrotation Yrotation
    JOINT chest
    {
      OFFSET 0 11.7043 -0.48768
      CHANNELS 3 Zrotation Xrotation Yrotation
      JOINT neck
      {
        OFFSET 0 22.1894 -2.19456
        CHANNELS 3 Zrotation Xrotation Yrotation
        JOINT head
        {
          OFFSET -0.24384 7.07133 1.2192
          CHANNELS 3 Zrotation Xrotation Yrotation
          JOINT leftEye
          {
            OFFSET 4.14528 8.04674 8.04672
            CHANNELS 3 Zrotation Xrotation Yrotation
            End Site
            {
              OFFSET 1 0 0
            }
          }
          JOINT rightEye
          {
            OFFSET -3.6576 8.04674 8.04672
            CHANNELS 3 Zrotation Xrotation Yrotation
            End Site
            {
              OFFSET 1 0 0
            }
          }
        }
      }
      JOINT rCollar
      {
        OFFSET -2.68224 19.2634 -4.8768
        CHANNELS 3 Zrotation Xrotation Yrotation
        JOINT rShldr
        {
          OFFSET -8.77824 -1.95073 1.46304
          CHANNELS 3 Zrotation Xrotation Yrotation
          JOINT rForeArm
          {
            OFFSET -28.1742 -1.7115 0.48768
            CHANNELS 3 Zrotation Xrotation Yrotation
            JOINT rHand
            {
              OFFSET -22.5879 0.773209 7.07136
              CHANNELS 3 Zrotation Xrotation Yrotation
              JOINT rThumb1
              {
                OFFSET -1.2192 -0.487915 3.41376
                CHANNELS 3 Zrotation Xrotation Yrotation
                JOINT rThumb2
                {
                  OFFSET -3.37035 -0.52449 3.41376
                  CHANNELS 3 Zrotation Xrotation Yrotation
                  End Site
                  {
                    OFFSET -1.78271 -1.18214 1.43049
                  }
                }
              }
              JOINT rIndex1
              {
                OFFSET -7.75947 0.938293 5.60832
                CHANNELS 3 Zrotation Xrotation Yrotation
                JOINT rIndex2
                {
                  OFFSET -2.54057 -0.884171 1.56538
                  CHANNELS 3 Zrotation Xrotation Yrotation
                  End Site
                  {
                    OFFSET -1.62519 -0.234802 1.16502
                  }
                }
              }
              JOINT rMid1
              {
                OFFSET -8.24714 1.18213 3.41376
                CHANNELS 3 Zrotation Xrotation Yrotation
                JOINT rMid2
                {
                  OFFSET -3.10165 -0.590103 1.0647
                  CHANNELS 3 Zrotation Xrotation Yrotation
                  End Site
                  {
                    OFFSET -2.48547 -0.328903 0.83742
                  }
                }
              }
              JOINT rRing1
              {
                OFFSET -8.82822 0.546677 1.51678
                CHANNELS 3 Zrotation Xrotation Yrotation
                JOINT rRing2
                {
                  OFFSET -2.60934 -0.819778 -0.0198488
                  CHANNELS 3 Zrotation Xrotation Yrotation
                  End Site
                  {
                    OFFSET -2.33842 -0.294052 0.168128
                  }
                }
              }
              JOINT rPinky1
              {
                OFFSET -8.27202 -0.0477905 -0.4584
                CHANNELS 3 Zrotation Xrotation Yrotation
                JOINT rPinky2
                {
                  OFFSET -1.82734 -0.647385 -0.700984
                  CHANNELS 3 Zrotation Xrotation Yrotation
                  End Site
                  {
                    OFFSET -1.69225 -0.51767 -0.607171
                  }
                }
              }
            }
          }
        }
      }
      JOINT lCollar
      {
        OFFSET 2.68224 19.2634 -4.8768
        CHANNELS 3 Zrotation Xrotation Yrotation
        JOINT lShldr
        {
          OFFSET 8.77824 -1.95073 1.46304
          CHANNELS 3 Zrotation Xrotation Yrotation
          JOINT lForeArm
          {
            OFFSET 28.1742 -1.7115 0.48768
            CHANNELS 3 Zrotation Xrotation Yrotation
            JOINT lHand
            {
              OFFSET 22.5879 0.773209 7.07136
              CHANNELS 3 Zrotation Xrotation Yrotation
              JOINT lThumb1
              {
                OFFSET 1.2192 -0.487915 3.41376
                CHANNELS 3 Zrotation Xrotation Yrotation
                JOINT lThumb2
                {
                  OFFSET 3.37035 -0.52449 3.41376
                  CHANNELS 3 Zrotation Xrotation Yrotation
                  End Site
                  {
                    OFFSET 1.78271 -1.18214 1.43049
                  }
                }
              }
              JOINT lIndex1
              {
                OFFSET 7.75947 0.938293 5.60832
                CHANNELS 3 Zrotation Xrotation Yrotation
                JOINT lIndex2
                {
                  OFFSET 2.54057 -0.884171 1.56538
                  CHANNELS 3 Zrotation Xrotation Yrotation
                  End Site
                  {
                    OFFSET 1.62519 -0.234802 1.16502
                  }
                }
              }
              JOINT lMid1
              {
                OFFSET 8.24714 1.18213 3.41376
                CHANNELS 3 Zrotation Xrotation Yrotation
                JOINT lMid2
                {
                  OFFSET 3.10165 -0.590103 1.0647
                  CHANNELS 3 Zrotation Xrotation Yrotation
                  End Site
                  {
                    OFFSET 2.48547 -0.328903 0.83742
                  }
                }
              }
              JOINT lRing1
              {
                OFFSET 8.82822 0.546677 1.51678
                CHANNELS 3 Zrotation Xrotation Yrotation
                JOINT lRing2
                {
                  OFFSET 2.60934 -0.819778 -0.0198488
                  CHANNELS 3 Zrotation Xrotation Yrotation
                  End Site
                  {
                    OFFSET 2.33842 -0.294052 0.168128
                  }
                }
              }
              JOINT lPinky1
              {
                OFFSET 8.27202 -0.0477905 -0.4584
                CHANNELS 3 Zrotation Xrotation Yrotation
                JOINT lPinky2
                {
                  OFFSET 1.82734 -0.647385 -0.700984
                  CHANNELS 3 Zrotation Xrotation Yrotation
                  End Site
                  {
                    OFFSET 1.69225 -0.51767 -0.607171
                  }
                }
              }
            }
          }
        }
      }
    }
  }
  JOINT rButtock
  {
    OFFSET -8.77824 4.35084 1.2192
    CHANNELS 3 Zrotation Xrotation Yrotation
    JOINT rThigh
    {
      OFFSET 0 -1.70687 -2.19456
      CHANNELS 3 Zrotation Xrotation Yrotation
      JOINT rShin
      {
        OFFSET 0 -36.8199 0.73152
        CHANNELS 3 Zrotation Xrotation Yrotation
        JOINT rFoot
        {
          OFFSET 0.73152 -45.1104 -5.12064
          CHANNELS 3 Zrotation Xrotation Yrotation
          End Site
          {
            OFFSET -1.1221 -3.69964 12.103
          }
        }
      }
    }
  }
  JOINT lButtock
  {
    OFFSET 8.77824 4.35084 1.2192
    CHANNELS 3 Zrotation Xrotation Yrotation
    JOINT lThigh
    {
      OFFSET 0 -1.70687 -2.19456
      CHANNELS 3 Zrotation Xrotation Yrotation
      JOINT lShin
      {
        OFFSET 0 -36.8199 0.73152
        CHANNELS 3 Zrotation Xrotation Yrotation
        JOINT lFoot
        {
          OFFSET -0.73152 -45.1104 -5.12064
          CHANNELS 3 Zrotation Xrotation Yrotation
          End Site
          {
            OFFSET 1.1221 -3.69964 12.103
          }
        }
      }
    }
  }
}
MOTION
Frames:	5
Frame Time:	0.00833333
73.0679 148.97 17.7634 -181.233 -3.4853 -314.859 5.14127 48.2105 1.06998 -1.38552 -2.98733 2.01671 -4.68224 16.1729 -0.330591 5.05468 -74.3205 -3.80626 -0.0 0.0 0.0 -0.0 0.0 0.0 6.08019e-14 1.96513e-13 -5.59074e-14 33.5934 32.8973 39.1537 -22.1698 -16.0198 44.2284 -1.53458 -33.0597 -5.23444 3.72348e-10 3.55333e-10 -9.55657e-10 6.7059e-10 6.23094e-10 -1.6431e-09 3.72367e-10 3.55339e-10 -9.5566e-10 7.73091 5.47488 0.417314 3.72353e-10 3.5534e-10 -9.55654e-10 2.90554 0.965183 0.102902 3.72363e-10 3.5534e-10 -9.55654e-10 10.2786 0.731801 0.0259123 3.72349e-10 3.55337e-10 -9.55655e-10 2.22167 -0.733487 -0.20892 6.06149e-14 1.96502e-13 -5.60173e-14 -15.5223 32.1333 -71.7803 17.1915 -9.85212 -32.2155 2.41842 -39.7477 6.70504 1.85352e-10 -3.28574e-10 1.04359e-09 2.89149e-10 -5.6445e-10 1.80878e-09 1.85344e-10 -3.28576e-10 1.0436e-09 -7.73091 5.47488 -0.417314 1.8535e-10 -3.28579e-10 1.04358e-09 -2.90554 0.965183 -0.102902 1.85346e-10 -3.28579e-10 1.04359e-09 -10.2786 0.731801 -0.0259123 1.85352e-10 -3.28576e-10 1.04358e-09 -2.22167 -0.733487 0.20892 -2.03217e-16 0.0 -3.88251e-19 -56.6502 -81.1278 -54.2824 50.4059 78.5095 117.666 -171.916 -6.39711 -7.71845 2.03217e-16 0.0 3.88251e-19 -18.1849 -78.5944 -14.2867 0.0750419 62.0688 -4.96256 176.149 -16.9027 170.287
73.0335 150.042 19.0238 -180.809 -4.0274 -319.643 3.96438 49.0516 2.58812 -1.29453 -3.12054 0.8832 -4.36169 15.8757 -0.337147 4.9029 -74.3843 -3.7758 -0.0 0.0 0.0 -0.0 0.0 0.0 1.90184e-14 2.54176e-13 -2.10836e-14 35.5678 33.3893 37.9815 -22.7476 -16.9266 45.8648 -1.88582 -36.1304 -5.86702 -1.69137e-10 5.34013e-10 -1.59697e-09 -2.39717e-10 9.31593e-10 -2.76542e-09 -1.69113e-10 5.34018e-10 -1.59697e-09 7.73091 5.47488 0.417314 -1.69135e-10 5.34018e-10 -1.59697e-09 2.90554 0.965183 0.102902 -1.69126e-10 5.34019e-10 -1.59697e-09 10.2786 0.731801 0.0259123 -1.69134e-10 5.34017e-10 -1.59697e-09 2.22167 -0.733487 -0.20892 1.88297e-14 2.54165e-13 -2.13103e-14 -18.1078 32.7453 -69.7089 17.8269 -10.4994 -33.6623 2.71076 -41.6061 7.15847 -6.57418e-11 -1.48229e-10 1.28664e-09 -1.53249e-10 -2.59697e-10 2.21911e-09 -6.57501e-11 -1.4823e-10 1.28664e-09 -7.73091 5.47488 -0.417314 -6.57462e-11 -1.48233e-10 1.28663e-09 -2.90554 0.965183 -0.102902 -6.57475e-11 -1.48233e-10 1.28664e-09 -10.2786 0.731801 -0.0259123 -6.57413e-11 -1.48229e-10 1.28663e-09 -2.22167 -0.733487 0.20892 -2.03217e-16 0.0 -3.88251e-19 -61.7678 -81.9133 -59.31 -70.2446 85.423 -76.6424 -167.892 0.391611 37.6581 2.03217e-16 0.0 3.88251e-19 -15.5088 -78.9139 -11.9066 -0.223446 61.0062 -5.0742 176.125 -15.6092 169.269
72.966 151.009 20.4011 -180.132 -4.6407 -324.509 2.71411 49.7659 4.17856 -1.22833 -3.32814 -0.247981 -3.98357 15.6713 -0.331808 4.60611 -74.6281 -3.83668 -0.0 0.0 0.0 -0.0 0.0 0.0 -2.36787e-14 2.94979e-13 1.57343e-14 37.6942 33.74 36.5773 -23.321 -17.8807 47.557 -2.33753 -39.3072 -6.59227 -6.65444e-10 6.29387e-10 -2.08927e-09 -1.07732e-09 1.09723e-09 -3.6288e-09 -6.65417e-10 6.29389e-10 -2.08928e-09 7.73091 5.47488 0.417314 -6.65445e-10 6.2939e-10 -2.08927e-09 2.90554 0.965183 0.102902 -6.65437e-10 6.29391e-10 -2.08928e-09 10.2786 0.731801 0.0259123 -6.65441e-10 6.2939e-10 -2.08928e-09 2.22167 -0.733487 -0.20892 -2.38576e-14 2.94969e-13 1.53922e-14 -20.7732 33.1653 -67.3273 18.5518 -11.2795 -35.3289 3.0362 -43.4209 7.63559 -3.20959e-10 1.64547e-11 1.41198e-09 -5.98983e-10 2.06675e-11 2.42623e-09 -3.20968e-10 1.64561e-11 1.41199e-09 -7.73091 5.47488 -0.417314 -3.20967e-10 1.64533e-11 1.41198e-09 -2.90554 0.965183 -0.102902 -3.20966e-10 1.64536e-11 1.41198e-09 -10.2786 0.731801 -0.0259123 -3.20958e-10 1.64565e-11 1.41198e-09 -2.22167 -0.733487 0.20892 -2.03217e-16 0.0 -3.88251e-19 -67.5343 -82.6118 -65.0587 -40.4913 69.3832 -64.439 -172.316 1.06545 81.9622 2.03217e-16 0.0 3.88251e-19 -12.581 -79.0902 -9.25113 -0.575396 59.9213 -6.10082 176.067 -14.279 167.262
72.9226 151.858 21.8853 -179.392 -5.1253 -329.427 1.65799 50.3282 5.36866 -1.19345 -3.55474 -0.995435 -3.60766 15.5799 -0.332622 4.17573 -75.0255 -4.00632 -0.0 0.0 0.0 -0.0 0.0 0.0 -5.15809e-14 2.95796e-13 3.71727e-14 39.4164 34.2023 35.2631 -23.8927 -18.898 49.2717 -2.77763 -41.9053 -7.24564 -8.33645e-10 5.02968e-10 -2.12084e-09 -1.36612e-09 8.83036e-10 -3.68707e-09 -8.33617e-10 5.0297e-10 -2.12084e-09 7.73091 5.47488 0.417314 -8.33647e-10 5.02971e-10 -2.12084e-09 2.90554 0.965183 0.102902 -8.3364e-10 5.02971e-10 -2.12085e-09 10.2786 0.731801 0.0259123 -8.33641e-10 5.02971e-10 -2.12084e-09 2.22167 -0.733487 -0.20892 -5.17408e-14 2.95787e-13 3.67752e-14 -22.6486 33.534 -65.3897 19.3428 -12.207 -37.1073 3.27562 -44.6202 7.97205 -4.38515e-10 4.94672e-11 1.24355e-09 -7.9693e-10 8.03122e-11 2.13116e-09 -4.38523e-10 4.94696e-11 1.24356e-09 -7.73091 5.47488 -0.417314 -4.38524e-10 4.94664e-11 1.24355e-09 -2.90554 0.965183 -0.102902 -4.38521e-10 4.94672e-11 1.24355e-09 -10.2786 0.731801 -0.0259123 -4.38513e-10 4.94696e-11 1.24355e-09 -2.22167 -0.733487 0.20892 -2.03217e-16 0.0 -3.88251e-19 -74.3418 -83.2076 -72.04 -11.9241 59.669 -59.689 -174.13 -5.37651 117.818 2.03217e-16 0.0 3.88251e-19 -10.1989 -79.231 -7.03794 -1.10481 59.0953 -9.09501 175.949 -12.9491 163.032
72.9311 152.571 23.4676 -178.775 -5.3763 -334.365 0.925084 50.8693 5.9579 -1.21174 -3.879 -1.20886 -3.20504 15.6433 -0.341125 3.44124 -75.6378 -4.4331 -0.0 0.0 0.0 -0.0 0.0 0.0 -6.12611e-14 2.30528e-13 3.46021e-14 40.6651 34.8629 33.9933 -24.4994 -20.0676 51.1132 -3.15678 -43.9533 -7.79337 -4.49752e-10 -4.48531e-11 -1.37117e-09 -7.31923e-10 -5.24685e-11 -2.38001e-09 -4.49729e-10 -4.48512e-11 -1.37117e-09 7.73091 5.47488 0.417314 -4.49755e-10 -4.48507e-11 -1.37116e-09 2.90554 0.965183 0.102902 -4.49748e-10 -4.48506e-11 -1.37117e-09 10.2786 0.731801 0.0259123 -4.4975e-10 -4.48495e-11 -1.37117e-09 2.22167 -0.733487 -0.20892 -6.13887e-14 2.30521e-13 3.42442e-14 -23.4181 33.9896 -64.0585 20.2677 -13.3935 -39.1724 3.3684 -45.0545 8.09906 -3.42603e-10 -1.82914e-10 5.20472e-10 -6.07344e-10 -3.05262e-10 8.86283e-10 -3.42611e-10 -1.82912e-10 5.20482e-10 -7.73091 5.47488 -0.417314 -3.42613e-10 -1.82916e-10 5.20473e-10 -2.90554 0.965183 -0.102902 -3.4261e-10 -1.82914e-10 5.20475e-10 -10.2786 0.731801 -0.0259123 -3.42601e-10 -1.82913e-10 5.20475e-10 -2.22167 -0.733487 0.20892 -2.03217e-16 0.0 -3.88251e-19 -81.1109 -83.6279 -79.2231 1.40338 58.2352 -47.2722 -172.42 -8.57885 145.376 2.03217e-16 0.0 3.88251e-19 -8.47718 -79.2249 -5.35135 -3.88002 57.3924 -17.3783 177.476 -10.0436 151.752
